<svg width="64" height="64" viewBox="0 0 64 64" fill="none" xmlns="http://www.w3.org/2000/svg">
<g clip-path="url(#clip0_5_4121)">
<g filter="url(#filter0_d_5_4121)">
<rect width="64" height="62" rx="16" fill="#608EF8"/>
</g>
<rect y="2" width="64" height="62" rx="16" fill="#457AF8"/>
<path d="M0 32H64V48C64 56.2843 57.2843 63 49 63H15C6.71573 63 0 56.2843 0 48V32Z" fill="#5C8BF8"/>
<g filter="url(#filter1_d_5_4121)">
<path d="M48 9.5C48 13.8761 46.2616 18.0729 43.1673 21.1673C40.0729 24.2616 35.8761 26 31.5 26C27.1239 26 22.9271 24.2616 19.8327 21.1673C16.7384 18.0729 15 13.8761 15 9.5H19.4124C19.4124 12.7059 20.6859 15.7804 22.9527 18.0473C25.2196 20.3141 28.2942 21.5877 31.5 21.5877C34.7058 21.5877 37.7804 20.3141 40.0473 18.0473C42.3141 15.7804 43.5877 12.7058 43.5877 9.5H48Z" fill="white"/>
</g>
<g filter="url(#filter2_d_5_4121)">
<path d="M29.0661 41.005C29.5141 40.2776 30.5714 40.2776 31.0193 41.005L39.3953 54.6059C39.8659 55.3701 39.3162 56.3543 38.4188 56.3543H21.6667C20.7693 56.3543 20.2195 55.3701 20.6901 54.6059L29.0661 41.005Z" fill="white"/>
<path d="M41.0924 39.1602L33.3756 51.6909L25.6587 39.1602H41.0924Z" fill="white" stroke="white" stroke-width="3.03022"/>
<mask id="mask0_5_4121" style="mask-type:alpha" maskUnits="userSpaceOnUse" x="20" y="40" width="20" height="17">
<path d="M29.0661 41.005C29.5141 40.2776 30.5714 40.2776 31.0193 41.005L39.3953 54.6059C39.8659 55.3701 39.3162 56.3543 38.4188 56.3543H21.6667C20.7693 56.3543 20.2195 55.3701 20.6901 54.6059L29.0661 41.005Z" fill="white"/>
</mask>
<g mask="url(#mask0_5_4121)">
<path d="M37.4627 41.1877L33.3756 47.8243L29.2885 41.1877H37.4627Z" stroke="#5C8BF8" stroke-width="7.08527"/>
</g>
</g>
</g>
<defs>
<filter id="filter0_d_5_4121" x="-4" y="-4" width="72" height="70" filterUnits="userSpaceOnUse" color-interpolation-filters="sRGB">
<feFlood flood-opacity="0" result="BackgroundImageFix"/>
<feColorMatrix in="SourceAlpha" type="matrix" values="0 0 0 0 0 0 0 0 0 0 0 0 0 0 0 0 0 0 127 0" result="hardAlpha"/>
<feOffset/>
<feGaussianBlur stdDeviation="2"/>
<feComposite in2="hardAlpha" operator="out"/>
<feColorMatrix type="matrix" values="0 0 0 0 0 0 0 0 0 0 0 0 0 0 0 0 0 0 0.25 0"/>
<feBlend mode="normal" in2="BackgroundImageFix" result="effect1_dropShadow_5_4121"/>
<feBlend mode="normal" in="SourceGraphic" in2="effect1_dropShadow_5_4121" result="shape"/>
</filter>
<filter id="filter1_d_5_4121" x="11" y="6.5" width="41" height="24.5" filterUnits="userSpaceOnUse" color-interpolation-filters="sRGB">
<feFlood flood-opacity="0" result="BackgroundImageFix"/>
<feColorMatrix in="SourceAlpha" type="matrix" values="0 0 0 0 0 0 0 0 0 0 0 0 0 0 0 0 0 0 127 0" result="hardAlpha"/>
<feOffset dy="1"/>
<feGaussianBlur stdDeviation="2"/>
<feComposite in2="hardAlpha" operator="out"/>
<feColorMatrix type="matrix" values="0 0 0 0 0 0 0 0 0 0 0 0 0 0 0 0 0 0 0.1 0"/>
<feBlend mode="normal" in2="BackgroundImageFix" result="effect1_dropShadow_5_4121"/>
<feBlend mode="normal" in="SourceGraphic" in2="effect1_dropShadow_5_4121" result="shape"/>
</filter>
<filter id="filter2_d_5_4121" x="16.518" y="34.6451" width="30.3824" height="26.7091" filterUnits="userSpaceOnUse" color-interpolation-filters="sRGB">
<feFlood flood-opacity="0" result="BackgroundImageFix"/>
<feColorMatrix in="SourceAlpha" type="matrix" values="0 0 0 0 0 0 0 0 0 0 0 0 0 0 0 0 0 0 127 0" result="hardAlpha"/>
<feOffset dy="1"/>
<feGaussianBlur stdDeviation="2"/>
<feComposite in2="hardAlpha" operator="out"/>
<feColorMatrix type="matrix" values="0 0 0 0 0 0 0 0 0 0 0 0 0 0 0 0 0 0 0.1 0"/>
<feBlend mode="normal" in2="BackgroundImageFix" result="effect1_dropShadow_5_4121"/>
<feBlend mode="normal" in="SourceGraphic" in2="effect1_dropShadow_5_4121" result="shape"/>
</filter>
<clipPath id="clip0_5_4121">
<rect width="64" height="64" rx="16" fill="white"/>
</clipPath>
</defs>
</svg>
